<svg width="25" height="25" viewBox="0 0 25 25" fill="none" xmlns="http://www.w3.org/2000/svg">
<g clip-path="url(#clip0_5_10052)">
<mask id="mask0_5_10052" style="mask-type:luminance" maskUnits="userSpaceOnUse" x="0" y="0" width="512" height="512">
<path d="M256 512C397.385 512 512 397.385 512 256C512 114.615 397.385 0 256 0C114.615 0 0 114.615 0 256C0 397.385 114.615 512 256 512Z" fill="white"/>
</mask>
<g mask="url(#mask0_5_10052)">
<path d="M256 0H512V64L480 96L512 128V192L480 224L512 256V320L480 352L512 384V448L256 480L0 448V384L32 352L0 320V256L256 0Z" fill="#EEEEEE"/>
<path d="M0 0H256V256H0V0Z" fill="#0052B4"/>
<path d="M187 243L244 202H174L231 243L209 176L187 243ZM106 243L163 202H93L150 243L128 176L106 243ZM25 243L82 202H12L69 243L47 176L25 243ZM187 162L244 121H174L231 162L209 95L187 162ZM106 162L163 121H93L150 162L128 95L106 162ZM25 162L82 121H12L69 162L47 95L25 162ZM187 80L244 39H174L231 80L209 13L187 80ZM106 80L163 39H93L150 80L128 13L106 80ZM25 80L82 39H12L69 80L47 13L25 80Z" fill="#EEEEEE"/>
</g>
<mask id="mask1_5_10052" style="mask-type:luminance" maskUnits="userSpaceOnUse" x="0" y="0" width="512" height="512">
<path d="M256 512C397.385 512 512 397.385 512 256C512 114.615 397.385 0 256 0C114.615 0 0 114.615 0 256C0 397.385 114.615 512 256 512Z" fill="white"/>
</mask>
<g mask="url(#mask1_5_10052)">
<path d="M256 0H512V64L480 96L512 128V192L480 224L512 256V320L480 352L512 384V448L256 480L0 448V384L32 352L0 320V256L256 0Z" fill="#EEEEEE"/>
<path d="M0 0H256V256H0V0Z" fill="#0052B4"/>
<path d="M187 243L244 202H174L231 243L209 176L187 243ZM106 243L163 202H93L150 243L128 176L106 243ZM25 243L82 202H12L69 243L47 176L25 243ZM187 162L244 121H174L231 162L209 95L187 162ZM106 162L163 121H93L150 162L128 95L106 162ZM25 162L82 121H12L69 162L47 95L25 162ZM187 80L244 39H174L231 80L209 13L187 80ZM106 80L163 39H93L150 80L128 13L106 80ZM25 80L82 39H12L69 80L47 13L25 80Z" fill="#EEEEEE"/>
</g>
<path d="M20.4688 3.90625C18.3594 1.95312 15.5859 0.78125 12.5 0.78125C9.41406 0.78125 6.64062 1.95312 4.53125 3.90625H20.4688ZM4.53125 21.0938C6.64062 23.0469 9.41406 24.2188 12.5 24.2188C15.5859 24.2188 18.3594 23.0469 20.4688 21.0938H4.53125Z" fill="#ED4C5C"/>
<path d="M0.78125 12.5C0.78125 14.1797 1.13281 15.7422 1.75781 17.1875H23.2422C23.8672 15.7422 24.2188 14.1797 24.2188 12.5C24.2188 10.8203 23.8672 9.25781 23.2422 7.8125H1.75781C1.13281 9.25781 0.78125 10.8203 0.78125 12.5Z" fill="#2A5F9E"/>
<path d="M4.53125 21.0938H20.4297C21.6016 20 22.5781 18.6719 23.2031 17.1875H1.71875C2.42188 18.6719 3.35938 20 4.53125 21.0938ZM20.4688 3.90625H4.53125C3.35938 5 2.38281 6.32812 1.75781 7.8125H23.2422C22.5781 6.32812 21.6406 5 20.4688 3.90625Z" fill="#F9F9F9"/>
</g>
<defs>
<clipPath id="clip0_5_10052">
<rect width="25" height="25" fill="white"/>
</clipPath>
</defs>
</svg>
