<svg width="25" height="25" viewBox="0 0 25 25" fill="none" xmlns="http://www.w3.org/2000/svg">
<mask id="mask0_262_4679" style="mask-type:luminance" maskUnits="userSpaceOnUse" x="0" y="0" width="25" height="25">
<path d="M12.5 25C19.4036 25 25 19.4036 25 12.5C25 5.59644 19.4036 0 12.5 0C5.59644 0 0 5.59644 0 12.5C0 19.4036 5.59644 25 12.5 25Z" fill="white"/>
</mask>
<g mask="url(#mask0_262_4679)">
<path d="M12.5 0H25V3.125L23.4375 4.6875L25 6.25V9.375L23.4375 10.9375L25 12.5V15.625L23.4375 17.1875L25 18.75V21.875L12.5 23.4375L0 21.875V18.75L1.5625 17.1875L0 15.625V12.5L12.5 0Z" fill="#EEEEEE"/>
<path d="M10.9375 3.125H25V6.25H10.9375V3.125ZM10.9375 9.375H25V12.5H12.5L10.9375 9.375ZM0 15.625H25V18.75H0V15.625ZM0 21.875H25V25H0V21.875Z" fill="#D80027"/>
<path d="M0 0H12.5V12.5H0V0Z" fill="#0052B4"/>
<path d="M9.13086 11.8652L11.9141 9.86328H8.49609L11.2793 11.8652L10.2051 8.59375L9.13086 11.8652ZM5.17578 11.8652L7.95898 9.86328H4.54102L7.32422 11.8652L6.25 8.59375L5.17578 11.8652ZM1.2207 11.8652L4.00391 9.86328H0.585938L3.36914 11.8652L2.29492 8.59375L1.2207 11.8652ZM9.13086 7.91016L11.9141 5.9082H8.49609L11.2793 7.91016L10.2051 4.63867L9.13086 7.91016ZM5.17578 7.91016L7.95898 5.9082H4.54102L7.32422 7.91016L6.25 4.63867L5.17578 7.91016ZM1.2207 7.91016L4.00391 5.9082H0.585938L3.36914 7.91016L2.29492 4.63867L1.2207 7.91016ZM9.13086 3.90625L11.9141 1.9043H8.49609L11.2793 3.90625L10.2051 0.634766L9.13086 3.90625ZM5.17578 3.90625L7.95898 1.9043H4.54102L7.32422 3.90625L6.25 0.634766L5.17578 3.90625ZM1.2207 3.90625L4.00391 1.9043H0.585938L3.36914 3.90625L2.29492 0.634766L1.2207 3.90625Z" fill="#EEEEEE"/>
</g>
</svg>
