<svg width="36" height="37" viewBox="0 0 36 37" fill="none" xmlns="http://www.w3.org/2000/svg">
<path d="M25.5 15.2078C25.5 18.1474 24.3247 20.8087 22.4246 22.7351C20.5245 24.6615 17.8995 25.8531 15 25.8531C9.20101 25.8531 4.5 21.087 4.5 15.2078C4.5 9.32855 9.20101 4.5625 15 4.5625C20.799 4.5625 25.5 9.32855 25.5 15.2078Z" fill="white"/>
<path d="M31.5 31.9361L22.4246 22.7351M22.4246 22.7351C24.3247 20.8087 25.5 18.1474 25.5 15.2078C25.5 9.32855 20.799 4.5625 15 4.5625C9.20101 4.5625 4.5 9.32855 4.5 15.2078C4.5 21.087 9.20101 25.8531 15 25.8531C17.8995 25.8531 20.5245 24.6615 22.4246 22.7351Z" stroke="#3F3E3E" stroke-width="2" stroke-linecap="round" stroke-linejoin="round"/>
</svg>
