<?xml version="1.0" encoding="UTF-8"?>
<svg id="Layer_2" data-name="Layer 2" xmlns="http://www.w3.org/2000/svg" viewBox="0 0 97.73 40.39">
  <defs>
    <style>
      .cls-1 {
        fill: #231f20;
      }
    </style>
  </defs>
  <g id="Layer_1-2" data-name="Layer 1">
    <g>
      <path class="cls-1" d="m46.28,39.68c-4.67,0-9.35,0-14.02,0-.52,0-1.05-.03-1.57-.05-.18,0-.39-.27-.39-.5,0-.12,0-.23.02-.35.03-.26.21-.44.44-.45.47-.03.93-.02,1.4-.07.46-.04.93-.1,1.38-.19,1.39-.27,2.05-1.23,2.33-2.53.07-.34.08-.7.09-1.05.05-1.63.14-3.27.14-4.9.02-6.37.02-12.74,0-19.1,0-1.69-.11-3.39-.17-5.08-.02-.53-.1-1.04-.31-1.54-.31-.76-.82-1.27-1.64-1.42-.57-.11-1.15-.19-1.73-.27-.29-.04-.58-.04-.87-.11-.16-.04-.31-.16-.31-.37,0-.17,0-.35,0-.52.01-.2.17-.34.33-.36.52-.05,1.05-.07,1.57-.07,4.73,0,9.46,0,14.2,0,3.27,0,6.54,0,9.81,0,.41,0,.82,0,1.23.01.52.02.72.21.77.75.15,1.57.28,3.14.43,4.71.1,1.1.22,2.21.32,3.31.02.23,0,.47-.05.69-.02.09-.13.22-.22.23-.23.04-.46.05-.69.03-.17-.02-.33-.1-.39-.29-.14-.45-.27-.89-.4-1.34-.28-.95-.6-1.89-1.03-2.79-.31-.63-.68-1.22-1.16-1.75-.94-1.03-2.1-1.65-3.49-1.84-1.39-.19-2.78-.33-4.19-.32-1.69.01-3.39,0-5.08,0-.23,0-.47.02-.7.03-.22.01-.45.22-.47.43-.02.23-.05.46-.05.7,0,4.67,0,9.35,0,14.02,0,.23.02.47.08.69.02.1.14.19.24.24.1.05.23.07.34.07,1.81-.01,3.62-.03,5.43-.04.65,0,1.28-.16,1.87-.4.87-.35,1.42-.98,1.61-1.92.18-.92.24-1.85.29-2.79.02-.39.26-.57.72-.55.44.01.63.2.66.63,0,.12.01.23.02.35,0,.12,0,.23,0,.35,0,3.56,0,7.13,0,10.69,0,.23,0,.47-.02.7,0,.11-.04.23-.09.33-.12.26-.36.26-.59.26-.24,0-.5-.02-.6-.26-.09-.21-.09-.45-.12-.68-.1-.81-.18-1.62-.28-2.43-.03-.23-.08-.46-.16-.68-.39-1-1.1-1.65-2.17-1.83-.57-.09-1.16-.14-1.74-.15-1.63-.02-3.27-.02-4.9-.01-.31,0-.53.25-.55.56-.01.23-.03.47-.03.7,0,3.56.02,7.13.03,10.69,0,1.23.09,2.45.33,3.66.03.17.05.35.08.52.21,1.02.82,1.64,1.82,1.9.68.17,1.36.34,2.07.34,1.81,0,3.62,0,5.43,0,.94,0,1.86-.21,2.76-.43,1.27-.31,2.37-.97,3.31-1.89,1.01-.99,1.83-2.12,2.47-3.38.56-1.09.98-2.25,1.35-3.42.12-.39.23-.78.36-1.17.12-.35.36-.47.84-.46.35,0,.6.2.59.5-.04,1.17-.08,2.33-.15,3.5-.06,1.11-.15,2.21-.24,3.32-.11,1.46-.24,2.91-.36,4.36-.02.22-.24.43-.46.44-.52.02-1.05.05-1.57.05-4.73,0-9.46,0-14.2,0Z"/>
      <path class="cls-1" d="m76.04.41c2.86,0,5.31-.03,7.77,0,1.93.03,3.84.28,5.73.69,1.79.4,3.43,1.14,4.86,2.31,1.99,1.64,3.14,3.73,3.3,6.33.09,1.46.05,2.92-.38,4.34-1.07,3.54-3.35,5.8-6.97,6.67-1.6.38-3.22.57-4.86.61-1.81.04-3.62.03-5.43.05-.35,0-.7.03-1.04.08-.09.01-.21.13-.24.23-.06.16-.08.34-.08.52,0,3.8,0,7.59.04,11.39,0,.7.12,1.39.23,2.09.2,1.3.97,2.09,2.26,2.35.51.1,1.04.15,1.56.19.52.04,1.05.02,1.57.05.44.02.72.66.47,1.08-.05.09-.17.18-.27.21-.23.05-.46.07-.69.07-5.26,0-10.52,0-15.77,0-.23,0-.47-.02-.69-.07-.17-.04-.3-.18-.31-.37,0-.17,0-.34,0-.52.01-.2.17-.35.32-.37.52-.06,1.05-.06,1.57-.08.59-.02,1.16-.11,1.72-.27,1.15-.33,1.72-1.14,1.98-2.23.07-.28.08-.58.09-.87.07-1.58.18-3.15.19-4.73.02-6.78.02-13.55,0-20.33,0-1.58-.13-3.15-.2-4.73-.02-.47-.11-.92-.31-1.36-.3-.69-.79-1.13-1.53-1.31-.8-.19-1.61-.3-2.43-.3-.35,0-.7-.03-1.05-.06-.17-.01-.39-.3-.4-.51,0-.12,0-.23.02-.35.03-.23.23-.44.45-.46.12-.01.23-.03.35-.04,2.86-.11,5.72-.22,8.17-.32Zm2.64,10.51c0,2.34,0,4.67,0,7.01,0,.47,0,.93.02,1.4.01.29.26.54.57.55,1.34.06,2.68.08,4.02-.07,1.04-.12,2.09-.17,3.11-.47,1.27-.37,2.33-1.05,3.18-2.06.6-.73,1.05-1.53,1.4-2.41.3-.77.43-1.58.53-2.39.26-1.94.03-3.85-.6-5.7-.66-1.93-1.95-3.3-3.87-4.02-.33-.12-.66-.24-.99-.33-2.17-.59-4.37-.68-6.6-.5-.06,0-.11.03-.17.03-.31.05-.56.28-.57.56-.02.47-.03.93-.03,1.4,0,2.34,0,4.67,0,7.01Z"/>
      <path class="cls-1" d="m0,33.01C0,31.37,0,29.73,0,28.1c0-.35.03-.7.1-1.04.03-.15.16-.31.37-.31.17,0,.35-.02.52-.01.25,0,.45.12.53.37.12.39.24.78.34,1.18.34,1.36.79,2.69,1.37,3.97.51,1.12,1.14,2.17,1.93,3.12,1.82,2.19,4.19,3.3,6.99,3.54,1.29.11,2.58.01,3.82-.36,2.87-.86,4.74-2.78,5.42-5.66.56-2.35-.01-4.52-1.75-6.3-.62-.63-1.33-1.14-2.07-1.61-1.39-.87-2.85-1.59-4.35-2.25-1.55-.69-3.1-1.36-4.62-2.1-1.15-.56-2.29-1.18-3.37-1.86-2.26-1.43-3.76-3.46-4.52-6.03-.58-1.95-.63-3.93-.01-5.87C1.76,3.46,4.1,1.34,7.49.4c2.31-.64,4.62-.48,6.91.18,1.2.34,2.27.92,3.24,1.69.45.37.89.76,1.31,1.17.66.64.83.51,1.3-.24.38-.6.56-1.28.76-1.95.13-.43.46-.59.98-.47.16.04.33.13.36.33.03.17.08.34.08.51,0,2.8,0,5.61,0,8.41,0,.17-.02.35-.07.52-.03.1-.1.2-.19.27-.21.18-.81.17-.99,0-.08-.08-.17-.17-.21-.27-.16-.44-.29-.89-.44-1.33-.48-1.39-1.15-2.68-2.05-3.84-.61-.79-1.31-1.5-2.12-2.08-2.42-1.75-5.09-2.28-7.97-1.51-2.34.62-3.62,2.29-4.06,4.58-.42,2.23.29,4.15,2,5.67.7.62,1.47,1.15,2.27,1.64,1.55.95,3.18,1.72,4.82,2.48,1.54.71,3.08,1.41,4.6,2.15.89.43,1.78.89,2.62,1.41,3.22,1.99,4.93,4.89,5.11,8.67.06,1.22.02,2.44-.28,3.65-.79,3.29-2.77,5.61-5.75,7.11-1.42.71-2.95,1.1-4.55,1.19-1.57.09-3.14.1-4.71-.23-2.41-.51-4.49-1.61-6.31-3.25-.13-.12-.26-.24-.38-.36-.97-1.02-1.11-.79-1.59.41-.24.59-.4,1.22-.6,1.83-.14.44-.29.54-.76.55-.12,0-.23-.02-.35-.03-.2-.01-.35-.14-.38-.3-.07-.34-.09-.69-.09-1.04,0-1.64,0-3.27,0-4.91Z"/>
    </g>
  </g>
</svg>