<svg width="22" height="27" viewBox="0 0 22 27" fill="none" xmlns="http://www.w3.org/2000/svg">
<path d="M18.9999 5.49984H16.3333C16.3333 2.55317 13.9466 0.166504 10.9999 0.166504C8.05325 0.166504 5.66658 2.55317 5.66658 5.49984H2.99992C1.53325 5.49984 0.333252 6.69984 0.333252 8.1665V24.1665C0.333252 25.6332 1.53325 26.8332 2.99992 26.8332H18.9999C20.4666 26.8332 21.6666 25.6332 21.6666 24.1665V8.1665C21.6666 6.69984 20.4666 5.49984 18.9999 5.49984ZM8.33325 10.8332C8.33325 11.5665 7.73325 12.1665 6.99992 12.1665C6.26658 12.1665 5.66658 11.5665 5.66658 10.8332V8.1665H8.33325V10.8332ZM10.9999 2.83317C12.4666 2.83317 13.6666 4.03317 13.6666 5.49984H8.33325C8.33325 4.03317 9.53325 2.83317 10.9999 2.83317ZM16.3333 10.8332C16.3333 11.5665 15.7333 12.1665 14.9999 12.1665C14.2666 12.1665 13.6666 11.5665 13.6666 10.8332V8.1665H16.3333V10.8332Z" fill="black"/>
</svg>
